<svg height="512pt" viewBox="0 0 512 512" width="512pt" xmlns="http://www.w3.org/2000/svg"><path d="m220 46v120h292v-120zm40 40h61v40h-61zm212 40h-111v-40h111zm-333.710938-35.917969c6.128907-9.195312 9.710938-20.226562 9.710938-32.082031 0-31.980469-26.019531-58-58-58s-58 26.019531-58 58c0 11.855469 3.582031 22.886719 9.710938 32.082031-25.058594 15.996094-41.710938 44.046875-41.710938 75.917969h40c0-27.570312 22.429688-50 50-50s50 22.429688 50 50h40c0-31.871094-16.652344-59.921875-41.710938-75.917969zm-66.289062-32.082031c0-9.925781 8.074219-18 18-18s18 8.074219 18 18-8.074219 18-18 18-18-8.074219-18-18zm148 454h292v-120h-292zm252-40h-131v-40h131zm-212-40h41v40h-41zm-121.710938 4.082031c6.128907-9.195312 9.710938-20.226562 9.710938-32.082031 0-31.980469-26.019531-58-58-58s-58 26.019531-58 58c0 11.855469 3.582031 22.886719 9.710938 32.082031-25.058594 15.996094-41.710938 44.046875-41.710938 75.917969h40c0-27.570312 22.429688-50 50-50s50 22.429688 50 50h40c0-31.871094-16.652344-59.921875-41.710938-75.917969zm-66.289062-32.082031c0-9.925781 8.074219-18 18-18s18 8.074219 18 18-8.074219 18-18 18-18-8.074219-18-18zm148-65h292v-120h-292zm252-40h-41v-40h41zm-212-40h131v40h-131zm-121.710938 4.082031c6.128907-9.195312 9.710938-20.226562 9.710938-32.082031 0-31.980469-26.019531-58-58-58s-58 26.019531-58 58c0 11.855469 3.582031 22.886719 9.710938 32.082031-25.058594 15.996094-41.710938 44.046875-41.710938 75.917969h40c0-27.570312 22.429688-50 50-50s50 22.429688 50 50h40c0-31.871094-16.652344-59.921875-41.710938-75.917969zm-66.289062-32.082031c0-9.925781 8.074219-18 18-18s18 8.074219 18 18-8.074219 18-18 18-18-8.074219-18-18zm0 0"/></svg>